<svg width="48" height="58" viewBox="0 0 48 58" fill="none" xmlns="http://www.w3.org/2000/svg">
<path d="M47.5259 21.4645L47.3804 11.3055L47.2865 6.22593L47.2747 5.59099C47.2583 5.36123 47.2588 5.10959 47.2137 4.87387C47.1539 4.39248 46.9941 3.92934 46.8009 3.48942C46.3944 2.61414 45.7399 1.86414 44.9326 1.3537C44.124 0.843969 43.1756 0.576142 42.2334 0.585091L39.6859 0.646525C33.0107 0.822287 30.7504 0.851118 24.4473 1.08339C30.7504 1.31565 33.009 1.34447 39.6859 1.52032L42.2176 1.58893C42.9718 1.62138 43.6997 1.87238 44.3057 2.29894C44.9066 2.72991 45.391 3.31606 45.671 3.9912C45.8019 4.32991 45.9132 4.67962 45.9416 5.04262C45.9708 5.22408 45.959 5.39908 45.9679 5.59099L45.9562 6.22593L45.8622 11.3055L45.7436 19.5869C42.2676 19.1723 38.7916 18.9362 35.3155 18.7789C31.5468 18.5939 27.7782 18.5443 24.0096 18.524C20.241 18.5472 16.4724 18.5967 12.7038 18.7824C9.23306 18.9401 5.76239 19.1748 2.29165 19.5857L2.16068 10.4301L2.07553 5.38033C2.08462 3.93246 3.02482 2.53097 4.38888 1.94525C5.07943 1.62714 5.77965 1.59049 6.66906 1.58836L9.20877 1.5228C15.8112 1.34813 18.2236 1.31469 24.4473 1.08339C18.3003 0.854934 16.2531 0.830906 6.66906 0.578486C6.24435 0.569324 5.83902 0.546739 5.34449 0.572875C4.8729 0.62046 4.40316 0.718116 3.95621 0.889565C2.15834 1.56385 0.833411 3.36456 0.740585 5.32138L0.635329 10.4301L0.489946 20.5891L0.37844 30.7482C0.376919 30.9358 0.329216 36.8226 0.332133 36.4626C0.342787 36.7043 0.337815 36.9811 0.380002 37.2362C0.433909 37.7594 0.594349 38.2673 0.795059 38.7521C1.2158 39.7188 1.91708 40.554 2.79122 41.1456C3.66729 41.7359 4.71892 42.0684 5.77624 42.083L7.66154 42.0908C6.7408 44.5335 5.87851 46.9935 5.04676 49.4625L3.64726 53.812L3.48107 54.3636C3.38121 54.7112 3.3609 55.0729 3.41864 55.4251C3.52787 56.1284 3.98526 56.787 4.61473 57.1299C5.57424 57.6788 6.83183 57.4854 7.58767 56.6456C7.73156 56.4819 7.7577 56.4389 7.82311 56.3584L7.99975 56.1342C11.5183 51.5744 14.9253 46.9283 18.1212 42.1193L23.572 42.1332L29.881 42.1163C33.0855 46.9241 36.4955 51.5732 40.0208 56.1332L40.1974 56.3575C40.2628 56.438 40.289 56.481 40.4328 56.6445C41.1855 57.481 42.4414 57.6791 43.4039 57.1286C44.0328 56.7859 44.4899 56.1277 44.5991 55.4248C44.6568 55.0729 44.6365 54.7114 44.5367 54.364L44.3706 53.8124L42.968 49.4638C42.13 46.9945 41.2674 44.5325 40.3433 42.0884L41.3502 42.0857C41.7756 42.0824 42.1639 42.0956 42.7335 42.0489C43.2576 41.9815 43.7752 41.8568 44.2634 41.6528C46.2294 40.855 47.6169 38.857 47.668 36.7494L47.6382 31.6235L47.5259 21.4645ZM6.16665 54.718L5.87318 55.104C5.86225 55.12 5.85053 55.1312 5.83306 55.1389C5.7984 55.157 5.75259 55.1602 5.71899 55.1425C5.67581 55.1241 5.65301 55.0961 5.63881 55.0476C5.63299 55.0242 5.63355 54.9974 5.63647 54.9783L5.78945 54.4337L6.94698 50.0149C7.59712 47.3874 8.2175 44.7511 8.76914 42.0947C8.88862 42.0951 17.0427 42.1166 16.5298 42.1152C12.9221 46.1977 9.49264 50.4179 6.16665 54.718ZM41.0768 50.0136L42.2313 54.4333L42.3843 54.9778C42.3872 54.9972 42.3879 55.0243 42.382 55.0478C42.3677 55.0968 42.3446 55.1252 42.3011 55.144C42.2671 55.1618 42.2207 55.1587 42.1856 55.1404C42.1679 55.1325 42.1561 55.1213 42.1449 55.105L41.8514 54.719C38.5303 50.4171 35.1026 46.1977 31.5017 42.1119C31.9101 42.1108 38.9454 42.092 38.8105 42.0924L39.2626 42.0912C39.8115 44.7484 40.4326 47.3845 41.0768 50.0136ZM45.6044 31.6235L45.5545 36.6561C45.5036 37.9532 44.6261 39.1573 43.4301 39.6196C42.8038 39.8701 42.2897 39.872 41.3502 39.8548C33.6213 39.8341 30.0118 39.8245 23.572 39.8073C-1.8018 39.8731 30.6818 39.7905 5.81132 39.8502C5.1724 39.8413 4.54769 39.655 4.00912 39.309C3.47496 38.9592 3.03732 38.4582 2.77148 37.8745C2.64818 37.5806 2.53753 37.2757 2.50337 36.9545C2.47112 36.7924 2.47851 36.6427 2.46381 36.4626C2.46253 36.305 2.41453 30.381 2.4175 30.7482L2.306 20.5891L2.29456 19.7886C5.76431 20.1992 9.23405 20.434 12.7038 20.5916C16.4724 20.7771 20.241 20.8267 24.0096 20.8499C27.7782 20.8295 31.5468 20.78 35.3155 20.595C38.7906 20.4378 42.2657 20.2017 45.7407 19.7874L45.7167 21.4645L45.6044 31.6235Z" fill="white"/>
<path d="M30.9121 7.68376C27.2388 6.12716 20.7721 6.13951 17.1071 7.68376C20.7669 9.22579 27.2325 9.24303 30.9121 7.68376Z" fill="white"/>
<path d="M17.1071 25.8288C20.754 27.3654 27.2208 27.393 30.9121 25.8288C27.2154 24.2621 20.7455 24.2955 17.1071 25.8288Z" fill="white"/>
</svg>
